<svg width="500" height="500" viewBox="0 0 500 500" fill="none" xmlns="http://www.w3.org/2000/svg">
<path fill-rule="evenodd" clip-rule="evenodd" d="M250 500C388.071 500 500 388.071 500 250C500 111.929 388.071 0 250 0C111.929 0 0 111.929 0 250C0 388.071 111.929 500 250 500ZM321.747 370.736C275.593 370.736 236.429 368.495 204.253 364.011L277.44 337.901C298.011 331.044 316.473 319.967 332.824 304.67C344.956 289.901 354.187 273.022 360.516 254.033C366.846 234.78 370.011 216.187 370.011 198.253C370.011 170.033 364.604 146.165 353.791 126.648C343.242 107.132 328.209 92.3627 308.692 82.3407C289.44 72.3187 266.89 67.3077 241.044 67.3077C222.846 67.3077 205.571 71 189.22 78.3846C173.132 85.5055 158.89 95 146.495 106.868C134.363 121.637 125 138.648 118.407 157.901C111.813 177.154 108.516 195.615 108.516 213.286C108.516 251.527 118.275 281.857 137.791 304.275C157.308 326.429 183.681 339.352 216.912 343.044L181.703 355.703V380.231C206.231 392.099 238.143 403.571 277.44 414.648C317 425.989 348.253 432.451 371.198 434.033L391.769 368.363C371.198 369.945 347.857 370.736 321.747 370.736ZM190.802 259.571C182.89 240.846 178.934 216.187 178.934 185.593C178.934 175.044 179.857 160.67 181.703 142.473C183.549 124.275 185.923 108.319 188.824 94.6044C214.143 95.6593 234.978 100.67 251.33 109.637C267.681 118.604 279.813 132.582 287.725 151.571C295.901 170.297 299.989 195.088 299.989 225.945C299.989 237.286 298.934 251.923 296.824 269.857C294.978 287.527 292.473 302.956 289.308 316.143C263.725 314.824 242.89 309.813 226.802 301.11C210.714 292.143 198.714 278.297 190.802 259.571Z" fill="url(#paint0_linear_19_10)"/>
<defs>
<linearGradient id="paint0_linear_19_10" x1="34.3407" y1="24.7253" x2="427.198" y2="442.308" gradientUnits="userSpaceOnUse">
<stop stop-color="#548DFC"/>
<stop offset="1" stop-color="#B454FF"/>
</linearGradient>
</defs>
</svg>
